# xmcd CD database file
#
# Track frame offsets:
#	150
#	77346
#	138382
#	204641
#	250728
#
# Disc length: 4441 seconds
#
# Revision: 1
# Processed by: cddbd v1.5.2PL0 Copyright (c) Steve Scherf et al.
# Submitted via: CDex 1.51
#
DISCID=39115705
DTITLE=Eddie Prevost and Alan Wilkinson - So Are We, So Are We
DYEAR=2006
DGENRE=Jazz
TTITLE0=On Green Street
TTITLE1=East, East, East London
TTITLE2=Supa, Supa
TTITLE3=For Marlene
TTITLE4=So Are We, So Are We
EXTD=YEAR: 2006
EXTT0=
EXTT1=
EXTT2=
EXTT3=
EXTT4=
PLAYORDER=
